<?xml version="1.0" standalone="no"?>
<!DOCTYPE svg PUBLIC "-//W3C//DTD SVG 1.1//EN" "http://www.w3.org/Graphics/SVG/1.1/DTD/svg11.dtd">
<svg xmlns="http://www.w3.org/2000/svg" width="73" height="72" viewBox="0 0 73 72" fill="none">
  <path d="M48.8426 15.9792C47.5886 17.1529 45.8815 17.8931 44.501 18.3266C39.7907 4.12581 21.2232 -1.23517 9.53694 9.69828C-4.50982 23.2012 3.85712 44.7826 20.7596 47.7433C20.3592 48.3566 19.9166 48.917 19.4213 49.4774C-1.3169 45.1844 -7.17586 17.597 10.3589 4.74968C23.1622 -4.60825 41.7507 0.435513 48.3578 14.8478C48.5264 15.2179 48.695 15.5985 48.8531 15.9792H48.8426Z" fill="white"/>
  <path d="M48.4493 33.2156V47.0569H35.7619C33.6227 48.22 31.3255 49.0554 28.9545 49.5312C28.5014 49.0131 28.0904 48.4738 27.7322 47.9134C28.0272 47.8711 28.3117 47.8288 28.6068 47.7865C30.6827 47.427 32.727 46.782 34.6554 45.8938V33.2262H48.4493V33.2156Z" fill="white"/>
  <path d="M72.3143 23.6563C72.2721 29.6728 67.4564 34.6637 61.4605 34.8752C58.8893 34.9704 56.297 34.1033 54.2738 32.5278C52.3032 30.9946 51.1546 28.7 49.163 27.2408C47.2451 25.8239 44.9057 25.5702 42.5242 25.5702C41.2913 25.5702 40.2059 25.7393 39.2365 26.046C39.2154 26.046 39.1838 26.0671 39.1522 26.0777C37.856 26.5747 34.9792 28.8587 33.23 30.3179C33.2089 30.339 33.1667 30.3813 33.093 30.4342C32.9033 30.6033 32.5345 30.9417 32.0497 31.3647C31.7652 31.629 31.428 31.9357 31.0697 32.2635C29.879 33.3843 28.4669 34.7589 27.5607 35.8269C27.5291 35.8586 27.508 35.8903 27.4764 35.9326C27.2446 36.2498 26.9916 36.6411 26.7914 37.0852C26.1697 38.6395 26.0327 40.3737 26.0327 42.1184C26.0327 44.5292 26.6861 46.3268 27.7293 47.9129C28.0876 48.4733 28.5091 49.0126 28.9517 49.5307C29.8895 50.6304 30.9749 51.6772 32.113 52.8298C34.1046 54.8599 35.3164 57.6515 35.3164 60.7179C35.3164 66.9565 30.2583 72.0214 24.0306 72.0003C18.1189 71.9791 13.1556 67.2526 12.8395 61.3206C12.6814 58.4128 13.6931 55.4309 15.6952 53.2844C17.023 51.8675 18.3297 50.7044 19.4256 49.4672C19.9209 48.9174 20.3634 48.3464 20.7639 47.7331C21.7123 46.2422 22.3129 44.5186 22.3129 42.1078C22.3129 39.6969 22.0284 37.4976 20.4793 35.5308C19.7839 34.6426 18.8776 33.8813 17.9503 33.1199C17.9503 33.1199 17.9433 33.1129 17.9292 33.0988C16.9176 32.4538 16.0219 31.6396 15.2843 30.7197C15.1789 30.5928 15.0735 30.4765 14.9681 30.339C14.789 30.0958 14.6204 29.842 14.4623 29.5988C13.3559 27.8436 12.7236 25.7605 12.7341 23.54C12.7341 21.7847 13.1556 20.1246 13.9038 18.6442C13.9881 18.475 14.0724 18.3059 14.1567 18.1367C14.2516 17.9781 14.3253 17.8195 14.4202 17.6714C14.5572 17.4494 14.6942 17.2168 14.8522 17.0158C14.9576 16.8678 15.0524 16.7409 15.1683 16.5929C15.3791 16.318 15.6109 16.0642 15.8533 15.7998C16.0851 15.5566 16.338 15.3029 16.6015 15.0702C17.0019 14.7319 17.4234 14.4147 17.8449 14.1292C18.003 14.0234 18.14 13.9388 18.298 13.8437C18.8565 13.5053 19.4572 13.2304 20.0684 13.0083C20.3318 12.9132 20.5953 12.8286 20.8692 12.744C21.6806 12.5008 22.5131 12.3422 23.3878 12.2999C26.2856 12.1413 29.2573 13.1564 31.3964 15.1654C34.9792 18.5596 36.9603 21.8058 42.5453 21.8058C42.6718 21.8058 42.7877 21.8058 42.9141 21.8058C43.7361 21.8058 44.5369 21.753 45.3378 21.6367C46.8341 21.3935 48.2462 20.8965 49.4791 19.9343C49.6582 19.7862 49.8479 19.6382 50.0165 19.469C51.1441 18.4645 52.0925 17.259 53.1146 16.1171C53.9576 15.1654 54.8639 14.2772 55.9598 13.611C57.6142 12.6171 59.374 12.1836 61.0917 12.1941C66.919 12.247 72.367 17.4388 72.3354 23.6351L72.3143 23.6563Z" fill="white"/>
</svg>